<svg width="16" height="16" fill="none" xmlns="http://www.w3.org/2000/svg"><path fill-rule="evenodd" clip-rule="evenodd" d="M16 8A8 8 0 1 1 0 8a8 8 0 0 1 16 0Zm-1.543.75a6.506 6.506 0 0 1-4.647 5.495c.901-1.195 1.769-3.033 1.918-5.495h2.73ZM8 14.035c-.82-.78-2.034-2.53-2.224-5.285h4.449C10.034 11.506 8.82 13.255 8 14.035Zm-1.81.21A6.506 6.506 0 0 1 1.543 8.75h2.73c.148 2.462 1.016 4.3 1.917 5.495ZM5.776 7.25C5.966 4.494 7.18 2.745 8 1.965c.82.78 2.034 2.53 2.224 5.285H5.776Zm-1.504 0h-2.73a6.506 6.506 0 0 1 4.649-5.495C5.289 2.95 4.42 4.788 4.272 7.25Zm10.185 0h-2.73c-.149-2.462-1.016-4.3-1.918-5.495a6.506 6.506 0 0 1 4.648 5.495Z"/></svg>