<svg width="16" height="16" fill="none" xmlns="http://www.w3.org/2000/svg"><path fill-rule="evenodd" clip-rule="evenodd" d="M8 14.5a6.5 6.5 0 1 0 0-13 6.5 6.5 0 0 0 0 13ZM8 16A8 8 0 1 0 8 0a8 8 0 0 0 0 16Z"/><path d="M6 6a1 1 0 1 1-2 0 1 1 0 0 1 2 0ZM12 6a1 1 0 1 1-2 0 1 1 0 0 1 2 0Z"/><path fill-rule="evenodd" clip-rule="evenodd" d="M5.665 8.33a.75.75 0 0 1 1.006.335c.045.09.426.585 1.329.585s1.284-.495 1.33-.585a.75.75 0 1 1 1.34.67c-.287.576-1.173 1.415-2.67 1.415-1.497 0-2.383-.839-2.67-1.415a.75.75 0 0 1 .335-1.006Z"/></svg>