<svg xmlns="http://www.w3.org/2000/svg" viewBox="0 0 160 160" width="160"><path d="M108.005 88v31c0 4.963-4.037 9-9 9s-9-4.037-9-9V88h-90v2h29v19.051c-11.113 0.526-20 9.689-20 20.91 0 20.372 20.384 29.763 20.59 29.855l0.41 0.184 0.41-0.184c0.206-0.093 20.59-9.484 20.59-29.855 0-11.22-8.887-20.383-20-20.91V90h37v49.535l31 20.465h30.303l13.697-9.132V160h17v-20.465V138 88H108.005zM49.005 129.96c0 17.5-16.191 26.421-19 27.835 -2.809-1.414-19-10.335-19-27.835 0-10.12 7.989-18.39 18-18.914V140h2v-28.953C41.016 111.571 49.005 119.84 49.005 129.96zM70.005 138.465V90h18v29c0 6.065 4.935 11 11 11s11-4.935 11-11V90h18v48.465l-29 19.333L70.005 138.465zM128.703 158h-26.394l27-18h26.395L128.703 158zM158.005 158h-13v-8.465l13-8.667V158zM158.005 138h-28V90h28V138z"/><path d="M54.298 45.293l1.414 1.414 4.293-4.293V75c0 2.206-1.794 4-4 4h-56v2h56c3.309 0 6-2.691 6-6V42.414l4.293 4.293 1.414-1.414 -6.707-6.707L54.298 45.293z"/><path d="M131.005 70V50.949c11.113-0.527 20-9.708 20-20.949 0-11.579-9.421-21-21-21s-21 9.421-21 21c0 11.242 8.887 20.422 20 20.949V70h-37V20.465L61.005 0H30.703L17.005 9.132V0h-17v20.465V22v48 1 1h30 1 21V41c0-4.963 4.037-9 9-9s9 4.037 9 9v31h21 1 68v-2H131.005zM2.005 2h13v8.465l-13 8.667V2zM30.005 70h-28V22h28V70zM30.703 20H4.308l27-18h26.394L30.703 20zM111.005 30c0-10.477 8.523-19 19-19s19 8.523 19 19c0 10.139-7.989 18.424-18 18.949V30h-2v18.949C118.995 48.424 111.005 40.139 111.005 30z"/></svg>
