<svg xmlns="http://www.w3.org/2000/svg" viewBox="0 0 160 160" width="160"><path d="M160 60v-8h-8v3h-30V0H0v122h55v30h-3v8h8v-3h42v3h8v-3h42v3h8v-8h-3v-42h3v-8h-3V60H160zM154 54h4v4h-4V54zM2 120V2h118v53h-10v-3h-8v3H60v-3h-8v8h3v42h-3v8h3v10H2zM104 58v-4h4v4H104zM58 104v4h-4v-4H58zM57 91.894V60h3v-3h31.894C75.098 61.843 61.843 75.098 57 91.894zM54 58v-4h4v4H54zM58 158h-4v-4h4V158zM60 155v-3h-3v-30h0.585c5.267 15.895 18.149 28.34 34.308 33H60zM108 158h-4v-4h4V158zM158 158h-4v-4h4V158zM152 152v3h-31.894c16.796-4.843 30.05-18.098 34.894-34.894V152H152zM158 108h-4v-4h4V108zM152 102v8h2.815c-1.937 23.83-20.985 42.877-44.815 44.814V152h-8v2.819C82.338 153.221 65.926 139.976 59.697 122H122V59.697c17.976 6.229 31.221 22.641 32.819 42.303H152zM155 91.894c-4.66-16.159-17.105-29.042-33-34.308V57h30v3h3V91.894z"/></svg>
