<svg xmlns="http://www.w3.org/2000/svg" viewBox="0 0 160 160" width="160"><path d="M150 33V22h-36.2c0.8-1.9 1.2-3.9 1.2-6 0-4.4-1.8-8.5-5-11.6 -3.2-3-7.4-4.6-11.8-4.4 -8.2 0.4-14.9 7.1-15.2 15.3 -0.1 2.3 0.3 4.6 1.2 6.7H48v57.3c-9.5 1.2-17.7 6.8-22.5 14.7C21.8 90.9 17.1 89 12 89L0 89.1l0 2 11-0.1V129h-11v2h12c5.1 0 9.8-1.9 13.5-4.9 4.8 7.9 13 13.4 22.5 14.7V149h10v11h102V33H150zM98.3 2C98.6 2 98.8 2 99 2c3.6 0 7 1.4 9.7 3.9 2.8 2.7 4.3 6.3 4.3 10.1 0 4.4-2 8.5-5.6 11.2 -1.5 1.2-2.4 2.9-2.4 4.8V35c0 3-2.2 5.4-5 5.9v-19c2.8-0.5 5-2.9 5-5.9h-2c0 2.2-1.8 4-4 4s-4-1.8-4-4h-2c0 3 2.2 5.4 5 5.9v19c-2.8-0.5-5-2.9-5-5.9v-3c0-1.9-0.9-3.7-2.4-4.8 -3.7-2.8-5.8-7.2-5.6-11.8C85.3 8.2 91.2 2.3 98.3 2zM50 24h35.2c1.1 1.8 2.5 3.5 4.2 4.8 1 0.8 1.6 2 1.6 3.2V35c0 4.1 3.1 7.4 7 7.9V43c0 3.3-2.7 6-6 6h-7c-8.8 0-16 7.2-16 16s7.2 16 16 16h28c7.7 0 14 6.3 14 14s-6.3 14-14 14h-1.6c-3.1-3.2-30-30-59.4-30 -0.7 0-1.3 0-2 0.1V24zM23 110c0-4.6 1.1-8.9 3-12.8 3.1 3.4 5 7.9 5 12.8s-1.9 9.4-5 12.8C24.1 118.9 23 114.6 23 110zM13 128.9V91.1c4.4 0.2 8.4 1.9 11.5 4.7C22.3 100 21 104.9 21 110s1.3 10 3.5 14.3C21.4 127 17.4 128.7 13 128.9zM27 124.7c3.7-3.8 6-9 6-14.7 0-5.7-2.3-10.9-6-14.7C32.1 86.8 41.4 81 52 81c26 0 50.2 21.7 56.6 28H63c-0.5-5.6-5.2-10-10.9-10 -6.1 0-11 4.9-11 11s4.9 11 11 11c5.7 0 10.4-4.4 10.9-10h45.6c-6.4 6.3-30.6 28-56.6 28C41.4 139 32.1 133.2 27 124.7zM61 110c0 5-4 9-9 9s-9-4-9-9 4-9 9-9S61 105 61 110zM50 140.9c0.7 0 1.3 0.1 2 0.1 29.4 0 56.3-26.8 59.4-30h1.6c8.8 0 16-7.2 16-16s-7.2-16-16-16h-28c-7.7 0-14-6.3-14-14s6.3-14 14-14h7c4.4 0 8-3.6 8-8v-0.1c3.9-0.5 7-3.9 7-7.9v-3c0-1.3 0.6-2.4 1.6-3.2 1.7-1.3 3.1-2.9 4.2-4.8h35.2v123h-98V140.9z"/></svg>
