<svg width="393" height="9" fill="none" xmlns="http://www.w3.org/2000/svg"><style>path{stroke:#000}@media (prefers-color-scheme:dark){path{stroke:#fff}}</style><path d="M1 8c8.358-2.442 19.111-6.427 27.889-4.222 2.84.713 3.239 2.325 6.444 2.36 9.967.112 20.06-1.271 30-1.86 4.555-.27 8.169-.392 12.445.11 9.808 1.155 19.939-.057 29.666 1.834 2.793.543 5.69.197 8.5 0 5.38-.376 10.662-.278 16.028-.278 3.326 0 6.691-.776 10-.166 3.239.596 6.23 1.381 9.584 1.222 14.932-.708 94.885-1.03 109.666-3.111 1.964-.277 3.396.313 5.278.5 12.342 1.222 25.158.61 37.556.61 15.441 0 31.025-.301 46.361-2.193 5.148-.636 10.229-1.716 15.444-1.195 3.765.377 5.873 2.464 9.306 3.556 5.678 1.806 11.477-1.078 16.944-.167" stroke="#000" /></svg>