<svg width="8" height="8" viewBox="0 0 8 8" fill="none" xmlns="http://www.w3.org/2000/svg">
<path d="M5.4117 0.941265C5.15179 0.941265 4.94101 0.730494 4.94101 0.470582C4.94101 0.210771 5.15179 0 5.4117 0H7.52942C7.78913 0 8 0.210971 8 0.470582V2.5884C8 2.84821 7.78923 3.05899 7.52942 3.05899C7.26961 3.05899 7.05884 2.84821 7.05884 2.5884V1.60661L4.33272 4.33272C4.14897 4.51637 3.85103 4.51637 3.66728 4.33272C3.48363 4.14897 3.48363 3.85103 3.66728 3.66728L6.39339 0.941265H5.4117ZM7.05884 4.47063C7.05884 4.21072 7.26961 4.00005 7.52942 4.00005C7.78923 4.00005 8 4.21072 8 4.47063V7.52942C8 7.78923 7.78923 8 7.52942 8H0.470582C0.210771 8 0 7.78923 0 7.52942V0.470582C0 0.210771 0.210771 0 0.470582 0H3.52937C3.78928 0 4.00005 0.210771 4.00005 0.470582C4.00005 0.730494 3.78928 0.941265 3.52937 0.941265H0.941265V7.05884H7.05884V4.47063Z" fill="black"/>
</svg>
